<mxfile host="app.diagrams.net" modified="2023-08-31T23:25:35.375Z" agent="Mozilla/5.0 (X11; Linux x86_64) AppleWebKit/537.36 (KHTML, like Gecko) Chrome/116.0.0.0 Safari/537.36" version="21.7.1" etag="5ubTf_KTQufIXZxuP1KQ" type="github">
  <diagram name="PÃ¡gina-1" id="XyJPrkqqXiihEy11icvz">
    <mxGraphModel>
      <root>
        <mxCell id="0" />
        <mxCell id="1" parent="0" />
      </root>
    </mxGraphModel>
  </diagram>
</mxfile>
